<svg width="117" height="69" viewBox="0 0 117 69" fill="none" xmlns="http://www.w3.org/2000/svg">
<path d="M90.7898 13.7598C90.7898 13.7598 93.1383 7.83707 95.8458 8.35711C98.867 8.93907 97.1831 16.0835 97.1831 16.0835L90.7898 13.7598Z" fill="#FFB3DF"/>
<path d="M82.7744 12.7693C82.7744 12.7693 79.9266 7.13131 77.5451 7.94853C75.1636 8.76574 76.9053 16.1991 76.9053 16.1991L82.7744 12.7693Z" fill="#FFB3DF"/>
<path d="M79.7492 13.1779C79.7492 13.1779 80.5623 12.1915 87.36 12.4226C94.1578 12.6537 97.9343 15.0393 97.9343 15.0393C97.9343 15.0393 100.279 13.2439 102.565 12.4639C105.962 11.3082 110.531 13.2522 110.89 13.9951C111.167 14.5606 109.611 19.5959 107.58 21.3171C105.314 23.2363 102.875 23.1166 102.875 23.1166C102.875 23.1166 102.338 26.6455 102.235 29.2746C102.177 30.7852 102.384 32.3619 102.644 33.1667C103.168 34.7929 103.465 35.9114 103.725 37.9049C103.944 39.5682 103.981 41.182 103.981 41.182L77.021 34.3843L79.7492 13.1779Z" fill="#FFB3DF"/>
<path d="M75.9726 33.922C75.9726 33.922 80.1949 32.7994 81.3175 32.1968C82.2751 31.685 87.653 29.3283 88.0575 22.0682C88.462 14.8082 83.3358 12.695 82.6383 12.5175C81.9407 12.3442 79.4231 13.0211 77.9496 13.7557C77.3222 14.0694 75.9726 14.9774 75.9726 14.9774C75.9726 14.9774 73.2981 12.1874 69.117 11.7829C64.936 11.3743 61.7951 13.5824 61.7373 13.8754C61.6795 14.1644 63.3057 19.8725 66.2815 21.8578C67.1483 22.4356 68.2627 22.6956 69.0262 22.7988C71.0239 23.0712 71.7874 22.8236 71.7874 22.8236C71.7874 22.8236 71.4985 25.9026 71.4407 27.471C71.383 29.0394 71.3499 31.2557 71.1683 32.8572C71.0528 33.8849 69.6577 36.6131 69.6206 38.6272C69.5958 39.9645 75.9726 33.922 75.9726 33.922Z" fill="#FFB3DF"/>
<path d="M87.0959 33.4556C92.1147 33.5753 93.2828 32.7003 96.7044 32.9314C100.126 33.1625 104.484 36.7657 104.072 41.9373C103.659 47.1089 99.3583 50.8276 94.7604 51.8719C90.1625 52.9161 79.906 53.0358 75.0729 50.419C70.2191 47.794 69.179 44.261 69.1212 40.9467C69.0634 37.6325 71.5357 32.8736 76.8972 32.2958C82.2586 31.718 82.143 33.34 87.0959 33.4556Z" fill="#FFF4F7"/>
<path d="M100.378 19.1047C99.5192 17.6024 100.378 15.2292 103.089 14.6101C105.801 13.991 108.513 15.2292 108.513 15.2292C108.513 15.2292 107.683 18.4072 105.801 19.6454C104.212 20.6938 101.616 21.2716 100.378 19.1047Z" fill="#FFB3DF"/>
<path d="M70.3181 14.7669C67.9036 14.0157 64.7627 14.9939 64.7627 14.9939C64.7627 14.9939 64.8618 16.389 65.8523 17.7386C66.4467 18.5476 67.334 19.5175 68.7373 19.9798C72.031 21.0653 73.2609 19.1048 73.5292 18.2133C73.8057 17.3217 73.3022 15.6956 70.3181 14.7669Z" fill="#FFB3DF"/>
<path d="M80.102 28.5034C81.1774 28.5034 82.0492 27.6316 82.0492 26.5562C82.0492 25.4808 81.1774 24.6091 80.102 24.6091C79.0267 24.6091 78.1549 25.4808 78.1549 26.5562C78.1549 27.6316 79.0267 28.5034 80.102 28.5034Z" fill="#1A1A1A"/>
<path fill-rule="evenodd" clip-rule="evenodd" d="M80.1019 26.1806C80.1019 25.7738 80.4298 25.444 80.8367 25.444C81.245 25.444 81.5719 25.7738 81.5719 26.1806C81.5719 26.587 81.2445 26.9168 80.8367 26.9168C80.4298 26.9173 80.1019 26.5875 80.1019 26.1806Z" fill="white"/>
<path d="M94.8905 28.1432C95.9659 28.1432 96.8377 27.2714 96.8377 26.196C96.8377 25.1207 95.9659 24.2489 94.8905 24.2489C93.8151 24.2489 92.9434 25.1207 92.9434 26.196C92.9434 27.2714 93.8151 28.1432 94.8905 28.1432Z" fill="#1A1A1A"/>
<path fill-rule="evenodd" clip-rule="evenodd" d="M94.8905 25.8195C94.8905 25.4136 95.2184 25.0833 95.6253 25.0833C96.0331 25.0833 96.3605 25.4141 96.3605 25.8195C96.3605 26.2264 96.0331 26.5562 95.6253 26.5562C95.2184 26.5567 94.8905 26.2264 94.8905 25.8195Z" fill="white"/>
<path d="M90.1501 43.8194C88.9119 42.8495 89.6053 40.2905 91.6607 38.8625C93.8317 37.3519 96.0893 37.9049 96.5021 38.8253C97.0428 40.0264 96.4236 40.7611 95.7674 41.2646C95.1442 41.7392 94.2939 41.6526 93.7532 41.9621C93.2126 42.2717 92.9773 43.0848 92.2426 43.7451C91.5616 44.3519 90.5628 44.1372 90.1501 43.8194Z" fill="#2E2F31"/>
<path d="M76.6701 39.0151C77.0581 37.2734 79.8358 37.3394 81.8211 38.8583C83.9178 40.4638 84.3388 42.7339 83.4473 43.5057C82.4319 44.389 81.4496 43.9473 80.8388 43.419C80.2444 42.9072 80.0339 42.4945 79.5717 42.0694C79.1135 41.6484 78.2922 41.5246 77.442 41.0252C76.6578 40.567 76.5051 39.7581 76.6701 39.0151Z" fill="#2E2F31"/>
<path d="M38.5632 15.3094C38.5632 15.3094 43.3481 13.6288 48.0691 13.6288C52.7901 13.6288 54.3842 7.05057 55.5576 0.279663C55.5576 0.279663 57.7253 8.94052 54.9065 14.4427C53.267 17.6429 46.8076 17.8355 45.4537 19.7088C45.4537 19.7088 41.7201 17.2102 38.5632 15.3094Z" fill="#333333"/>
<path d="M30.1618 15.3094C30.1618 15.3094 25.3769 13.6288 20.6559 13.6288C15.9348 13.6288 14.3408 7.05057 13.1673 0.279663C13.1673 0.279663 10.9997 8.94052 13.8185 14.4427C15.4579 17.6429 21.9174 17.8355 23.2713 19.7088C23.2713 19.7088 27.0048 17.2102 30.1618 15.3094Z" fill="#333333"/>
<path d="M17.0522 32.4548C17.0522 21.9173 25.9072 14.2755 34.488 14.2755C42.7245 14.2755 51.1775 21.4349 52.295 31.9106C53.4073 42.3489 49.4218 54.1238 34.6079 54.1238C17.5139 54.1233 17.0522 42.9928 17.0522 32.4548Z" fill="#FFF4F7"/>
<path fill-rule="evenodd" clip-rule="evenodd" d="M49.4218 45.7871C49.4218 50.3911 41.3473 54.4966 36.2826 54.4966H31.8536C26.7879 54.4966 19.5547 50.3911 19.5547 45.7871C19.5547 41.1825 23.6612 37.4504 28.7269 37.4504H40.25C45.3147 37.4504 49.4218 41.1825 49.4218 45.7871Z" fill="#FFB3DF"/>
<path d="M45.928 18.8016C45.928 18.8016 57.1795 17.4982 58.8017 23.6004C60.4245 29.7036 60.9682 31.7517 60.9682 31.7517C60.9682 31.7517 49.3906 31.828 47.7689 25.7258C46.1476 19.6247 45.928 18.8016 45.928 18.8016Z" fill="#FFF4F7"/>
<path fill-rule="evenodd" clip-rule="evenodd" d="M60.9682 31.7517L58.4241 29.257L53.3774 23.722L48.982 21.2801C48.982 21.2801 47.7317 20.3592 47.1913 19.9778C46.6509 19.5963 45.8889 18.8382 45.8889 18.8382C45.8889 18.8382 46.7107 24.844 48.3308 27.3035C49.5911 29.2166 52.4007 30.2116 52.4007 30.2116C56.2377 31.7829 60.9682 31.7517 60.9682 31.7517Z" fill="#FFB3DF"/>
<path d="M22.8353 19.1272C22.8353 19.1272 11.5838 17.8238 9.96157 23.926C8.33878 30.0292 7.79508 32.0773 7.79508 32.0773C7.79508 32.0773 19.3727 32.1537 20.9944 26.0515C22.6157 19.9503 22.8353 19.1272 22.8353 19.1272Z" fill="#FFF4F7"/>
<path fill-rule="evenodd" clip-rule="evenodd" d="M7.79506 32.0773L10.3392 29.5826L15.3859 24.0476L19.7813 21.6057C19.7813 21.6057 21.0316 20.6848 21.572 20.3034C22.1124 19.9219 22.8744 19.1638 22.8744 19.1638C22.8744 19.1638 22.0526 25.1697 20.4325 27.6291C19.1723 29.5422 16.3626 30.5373 16.3626 30.5373C12.5256 32.1085 7.79506 32.0773 7.79506 32.0773Z" fill="#FFB3DF"/>
<path d="M26.3008 34.2567C27.4606 34.2567 28.4008 33.3165 28.4008 32.1567C28.4008 30.9969 27.4606 30.0567 26.3008 30.0567C25.141 30.0567 24.2008 30.9969 24.2008 32.1567C24.2008 33.3165 25.141 34.2567 26.3008 34.2567Z" fill="#1A1A1A"/>
<path fill-rule="evenodd" clip-rule="evenodd" d="M26.3008 31.7517C26.3008 31.3129 26.6544 30.9572 27.0932 30.9572C27.5336 30.9572 27.8862 31.3129 27.8862 31.7517C27.8862 32.19 27.5331 32.5457 27.0932 32.5457C26.6544 32.5462 26.3008 32.1905 26.3008 31.7517Z" fill="#FFF4F7"/>
<path d="M42.2504 33.8683C43.4102 33.8683 44.3504 32.9281 44.3504 31.7683C44.3504 30.6085 43.4102 29.6683 42.2504 29.6683C41.0906 29.6683 40.1504 30.6085 40.1504 31.7683C40.1504 32.9281 41.0906 33.8683 42.2504 33.8683Z" fill="#1A1A1A"/>
<path fill-rule="evenodd" clip-rule="evenodd" d="M42.2504 31.3622C42.2504 30.9245 42.604 30.5682 43.0428 30.5682C43.4826 30.5682 43.8358 30.925 43.8358 31.3622C43.8358 31.801 43.4826 32.1568 43.0428 32.1568C42.604 32.1573 42.2504 31.801 42.2504 31.3622Z" fill="#FFF4F7"/>
<path d="M37.5851 47.5103C36.2497 46.4642 36.9975 43.7043 39.2143 42.1641C41.5558 40.5349 43.9907 41.1314 44.4358 42.1241C45.0189 43.4194 44.3512 44.2118 43.6435 44.7548C42.9713 45.2668 42.0543 45.1733 41.4712 45.5071C40.888 45.841 40.6343 46.7179 39.842 47.4301C39.1075 48.0845 38.0302 47.853 37.5851 47.5103Z" fill="#2E2F31"/>
<path d="M24.3491 42.3289C24.7676 40.4504 27.7634 40.5216 29.9045 42.1597C32.1658 43.8913 32.6199 46.3396 31.6583 47.172C30.5633 48.1246 29.5039 47.6483 28.8451 47.0785C28.2041 46.5265 27.977 46.0814 27.4785 45.6229C26.9844 45.1688 26.0985 45.0353 25.1816 44.4967C24.3358 44.0026 24.1711 43.1301 24.3491 42.3289Z" fill="#2E2F31"/>
<path d="M34.493 51.0714C31.8896 51.0714 29.7722 49.1933 29.7722 46.8851C29.7722 46.6798 29.9601 46.5132 30.1917 46.5132C30.4232 46.5132 30.6111 46.6798 30.6111 46.8851C30.6111 48.7831 32.3527 50.0019 34.493 50.0019C36.6338 50.0019 38.3754 48.7831 38.3754 46.8851C38.3754 46.6798 38.5633 46.5132 38.7948 46.5132C39.0264 46.5132 39.2143 46.6798 39.2143 46.8851C39.2143 49.1938 37.0963 51.0714 34.493 51.0714Z" fill="#FF00DD"/>
</svg>
