<svg width="81" height="81" viewBox="0 0 81 81" fill="none" xmlns="http://www.w3.org/2000/svg">
<path fill-rule="evenodd" clip-rule="evenodd" d="M40.5 6.75C39.5415 6.75 38.9003 7.8975 37.6178 10.2026L37.287 10.7966C36.9225 11.4514 36.7402 11.7754 36.4567 11.9914C36.1729 12.2084 35.8231 12.2867 35.1294 12.4419L35.1068 12.447L34.4655 12.5955L34.4513 12.5987C31.97 13.1602 30.7288 13.4411 30.4324 14.391C30.1358 15.3447 30.9833 16.3354 32.6758 18.3139L32.6835 18.3229L33.1223 18.8359L33.1241 18.838C33.6055 19.4002 33.848 19.6834 33.9559 20.0306C34.0625 20.3771 34.0277 20.7466 33.9586 21.4801L33.9559 21.5089L33.8884 22.194L33.8854 22.2244C33.6309 24.8535 33.5032 26.172 34.2765 26.757C35.0506 27.346 36.2141 26.8106 38.5335 25.7432L38.5526 25.7344L39.1534 25.4576L39.2024 25.4352C39.8347 25.1462 40.1577 24.9986 40.5 24.9986C40.8423 24.9986 41.1653 25.1462 41.7976 25.4352L41.8466 25.4576L42.4474 25.7344L42.4665 25.7432C44.7859 26.8106 45.9494 27.346 46.7235 26.757C47.4964 26.1697 47.3681 24.8434 47.1116 22.194L47.0441 21.5089L47.0414 21.4801C46.9723 20.7466 46.9375 20.3771 47.0441 20.0306C47.1504 19.6852 47.3874 19.4084 47.8549 18.8625L47.8778 18.8359L48.3165 18.3229L48.3242 18.3139C50.0167 16.3354 50.8642 15.3447 50.5676 14.391C50.2712 13.4411 49.03 13.1602 46.5487 12.5987L46.5345 12.5955L45.8932 12.447C45.1845 12.2884 44.8301 12.2074 44.5432 11.9914C44.2597 11.7754 44.0775 11.4514 43.713 10.7966L43.3822 10.2026C42.0997 7.8975 41.4585 6.75 40.5 6.75ZM27 74.25V37.875H54V74.25H27Z" fill="white"/>
<g opacity="0.5">
<path fill-rule="evenodd" clip-rule="evenodd" d="M54.0001 74.25V54.125H74.2501V74.25H54.0001Z" fill="white"/>
<path d="M6.9169 67.4077C7.41281 66.0445 8.36572 64.9013 9.59894 64H6.99999L6.9169 67.4077Z" fill="white"/>
<path d="M27.0001 67.4842V64H24.9011C25.9077 64.8951 26.6517 66.0511 27.0001 67.4842Z" fill="white"/>
<path d="M6.75005 74.25H27.0001V67.4842C26.6517 66.0511 25.9077 64.8951 24.9011 64H9.59894C8.36572 64.9013 7.41281 66.0445 6.9169 67.4077L6.75005 74.25Z" fill="white"/>
</g>
</svg>
