<svg width="48" height="48" viewBox="0 0 48 48" fill="none" xmlns="http://www.w3.org/2000/svg">
<path d="M18 6V2H30V6H18ZM22 28H26V16H22V28ZM24 44C21.5333 44 19.208 43.5253 17.024 42.576C14.84 41.6267 12.932 40.3347 11.3 38.7C9.668 37.0653 8.37667 35.1567 7.426 32.974C6.47533 30.7913 6 28.4667 6 26C6 23.5333 6.47533 21.208 7.426 19.024C8.37667 16.84 9.668 14.932 11.3 13.3C12.932 11.668 14.8407 10.3767 17.026 9.426C19.2113 8.47533 21.536 8 24 8C26.0667 8 28.05 8.33333 29.95 9C31.85 9.66667 33.6333 10.6333 35.3 11.9L38.1 9.1L40.9 11.9L38.1 14.7C39.3667 16.3667 40.3333 18.15 41 20.05C41.6667 21.95 42 23.9333 42 26C42 28.4667 41.5247 30.792 40.574 32.976C39.6233 35.16 38.332 37.068 36.7 38.7C35.068 40.332 33.1593 41.624 30.974 42.576C28.7887 43.528 26.464 44.0027 24 44Z" fill="#FC93B2"/>
</svg>
